<?xml version="1.0" encoding="iso-8859-1"?>
<!-- Generator: Adobe Illustrator 16.0.0, SVG Export Plug-In . SVG Version: 6.00 Build 0)  -->
<!DOCTYPE svg PUBLIC "-//W3C//DTD SVG 1.1//EN" "http://www.w3.org/Graphics/SVG/1.1/DTD/svg11.dtd">
<svg xmlns="http://www.w3.org/2000/svg" xmlns:xlink="http://www.w3.org/1999/xlink" version="1.1" id="Capa_1" x="0px" y="0px" width="512px" height="512px" viewBox="0 0 493.761 493.762" style="enable-background:new 0 0 493.761 493.762;" xml:space="preserve">
<g>
	<g>
		<g id="Icons_15_">
			<g xmlns="http://www.w3.org/2000/svg">
				<path d="M290.652,402.646h-87.595c-6.781,0-12.283,5.503-12.283,12.283c0,6.785,5.502,12.287,12.283,12.287h87.595      c6.781,0,12.289-5.502,12.289-12.287C302.942,408.149,297.435,402.646,290.652,402.646z" fill="#000000"/>
				<path d="M224.299,474.245c1.666,11.026,11.086,19.517,22.586,19.517c11.488,0,20.93-8.487,22.589-19.517      c15.037-0.888,26.987-13.245,26.987-28.504H197.25C197.25,461.009,209.235,473.375,224.299,474.245z" fill="#000000"/>
				<path d="M365.194,215.404c0-65.354-52.976-118.333-118.322-118.333c-65.359,0-118.336,52.979-118.336,118.333      c0,27.569,9.482,52.884,25.322,72.981c13.881,17.612,27.027,36.839,38.42,56.187v39.306h108.516v-38.263      c11.288-18.818,25.881-40.484,39.065-57.211C355.713,268.301,365.194,242.991,365.194,215.404z" fill="#000000"/>
			</g>
		</g>
	</g>
</g>
</svg>
